# xmcd
#
# Track frame offsets:
# 150
# 16439
# 32908
# 54282
# 76104
#
# Disc length: 1233 seconds
#
#
# Revision: 1
# Processed by: cddbd v1.5.1PL2 Copyright (c) Steve Scherf et al.
# Submitted via: FreeRIP 2.944 
#
DISCID=2f04cf05
DTITLE=DJ Patrick - My Girl
DYEAR=2005
DGENRE=Après-Ski
TTITLE0=My Girl (Global Edit)
TTITLE1=My Girl (Radio Edit)
TTITLE2=My Girl (Extended)
TTITLE3=My Girl (Jump Mix)
TTITLE4=My Girl (Karaoke)
EXTD=http://popartiesten.pagina.nl
EXTT0=
EXTT1=
EXTT2=
EXTT3=
EXTT4=
PLAYORDER=
